<?xml version="1.0" standalone="no"?>
<!DOCTYPE svg PUBLIC "-//W3C//DTD SVG 20010904//EN"
 "http://www.w3.org/TR/2001/REC-SVG-20010904/DTD/svg10.dtd">
<svg version="1.0" xmlns="http://www.w3.org/2000/svg"
 width="626.000000pt" height="523.000000pt" viewBox="0 0 626.000000 523.000000"
 preserveAspectRatio="xMidYMid meet">

<g transform="translate(0.000000,523.000000) scale(0.100000,-0.100000)"
fill="#000000" stroke="none">
<path d="M3073 4540 c-70 -10 -114 -38 -137 -83 -15 -31 -20 -76 -27 -235 -5
-108 -11 -203 -14 -209 -3 -10 14 -13 65 -13 90 0 100 -10 100 -100 0 -60 -3
-71 -22 -84 -27 -19 -128 -22 -146 -4 -6 6 -14 10 -16 7 -3 -3 -8 -71 -12
-152 l-7 -147 41 0 42 0 0 -160 0 -160 25 0 25 0 0 160 0 160 70 0 70 0 0 261
0 261 -54 -4 -55 -3 -7 95 c-8 108 1 285 16 324 11 30 78 65 123 66 42 0 90
-26 110 -59 30 -50 46 -281 31 -430 l-7 -61 -53 0 -54 0 0 -179 0 -179 143 -7
c78 -4 192 -3 252 1 l110 9 3 164 c2 112 -1 168 -9 177 -9 11 -45 14 -155 14
l-144 0 0 113 c-1 172 -16 381 -30 406 -6 13 -26 29 -44 36 -42 18 -166 26
-233 15z"/>
<path d="M3030 4065 c0 -8 2 -15 4 -15 2 0 6 7 10 15 3 8 1 15 -4 15 -6 0 -10
-7 -10 -15z"/>
<path d="M3078 4063 c7 -3 16 -2 19 1 4 3 -2 6 -13 5 -11 0 -14 -3 -6 -6z"/>
<path d="M875 3957 c-16 -13 -18 -26 -13 -169 3 -86 8 -160 12 -166 3 -6 84
-13 187 -17 180 -8 181 -8 175 -30 -4 -15 1 -28 14 -40 19 -18 22 -18 73 0 51
17 53 20 64 65 6 26 21 71 33 99 19 44 26 51 51 51 34 0 44 -13 22 -31 -20
-18 -52 -87 -53 -115 0 -31 27 -38 44 -11 8 12 22 48 33 79 20 63 29 70 42 36
9 -25 4 -46 -16 -66 -17 -18 -16 -29 2 -36 20 -7 19 -22 -5 -46 -13 -13 -15
-20 -7 -20 7 0 21 16 30 35 l17 35 589 0 590 0 3 180 3 180 -936 0 c-768 0
-938 -2 -954 -13z"/>
<path d="M3751 3876 c-14 -17 -7 -36 14 -36 22 0 29 20 13 36 -13 13 -16 13
-27 0z"/>
<path d="M3744 3795 c-4 -9 -2 -21 4 -27 15 -15 44 -1 40 19 -4 23 -36 29 -44
8z"/>
<path d="M3746 3704 c-4 -10 -2 -22 3 -27 14 -14 43 0 39 20 -4 24 -34 28 -42
7z"/>
<path d="M2818 3533 c7 -3 16 -2 19 1 4 3 -2 6 -13 5 -11 0 -14 -3 -6 -6z"/>
<path d="M1157 3425 c-14 -7 -57 -18 -95 -24 -38 -6 -86 -18 -108 -27 -47 -20
-144 -117 -209 -210 -62 -88 -111 -147 -260 -314 -169 -190 -166 -184 -153
-223 17 -52 56 -97 83 -97 34 0 207 133 336 257 59 57 109 103 113 103 4 0 5
-8 2 -17 -3 -10 -13 -83 -22 -163 -9 -80 -20 -149 -24 -155 -5 -5 -8 -43 -9
-84 0 -41 -7 -151 -16 -245 -25 -289 -35 -598 -35 -1143 0 -513 0 -522 20
-536 17 -12 20 -21 14 -56 -8 -51 -26 -71 -62 -71 -15 0 -38 -3 -51 -7 -22 -6
-22 -6 10 -20 71 -30 232 -45 539 -50 345 -6 671 12 656 36 -2 3 750 7 1672 8
1522 1 2171 10 2264 30 33 6 27 23 -8 23 l-24 0 0 825 0 825 43 0 c69 0 77 15
77 151 0 76 -4 119 -12 127 -9 9 -159 12 -612 12 -329 0 -597 2 -594 5 2 3 17
6 31 7 26 2 27 5 27 60 l0 58 -349 0 -349 0 64 -157 c36 -87 78 -196 94 -243
l29 -85 78 -5 c64 -4 78 -8 81 -22 3 -16 -6 -18 -73 -18 l-76 0 3 -37 3 -38
73 -3 c63 -2 73 -5 70 -20 -3 -14 -17 -18 -81 -20 -57 -2 -79 -7 -83 -17 -8
-20 -66 -55 -117 -71 -36 -11 61 -13 626 -13 l667 -1 0 -40 0 -40 115 0 115 0
0 -570 0 -570 -115 0 -115 0 0 -38 0 -37 -1112 3 c-612 2 -1119 5 -1125 7 -10
3 -13 141 -13 645 l0 640 438 1 c266 1 409 5 364 9 -77 8 -112 25 -138 65 -15
23 -22 25 -104 25 -61 0 -91 4 -99 13 -18 22 -2 27 86 27 l84 0 -3 38 -4 37
-79 3 c-135 5 -128 42 7 42 l76 0 56 55 c44 42 56 61 56 84 0 30 -55 216 -70
236 -4 6 -15 34 -25 62 l-19 53 -410 2 -411 3 -3 133 c-2 85 1 132 8 132 5 0
10 11 10 24 0 13 7 26 15 30 12 4 15 24 15 86 l0 80 -56 0 -57 0 5 -75 c4 -55
10 -81 24 -96 17 -18 19 -41 22 -170 l4 -150 -454 1 -453 1 -3 -44 c-3 -38 1
-48 20 -61 12 -9 33 -16 45 -16 27 0 31 -16 6 -24 -10 -2 -48 -8 -86 -12 l-67
-6 10 26 c18 48 9 156 -14 156 -20 0 -216 102 -216 112 0 6 -17 26 -38 44 -35
30 -39 39 -50 111 -7 43 -12 134 -12 202 0 108 -3 131 -22 170 -26 54 -100
129 -177 180 -31 20 -60 42 -66 48 -9 12 -56 22 -156 36 -21 3 -48 0 -62 -8z
m1631 -2141 l2 -812 -517 -4 -518 -5 -55 24 c-74 33 -125 72 -111 86 14 14 14
93 1 245 -5 64 -16 205 -25 312 -8 107 -29 355 -45 550 -17 195 -30 370 -30
388 l0 32 648 -2 647 -3 3 -811z m-1614 141 c3 -44 17 -120 31 -170 18 -61 29
-134 36 -228 9 -128 39 -380 55 -454 l7 -33 -102 0 -101 0 0 425 c0 452 10
621 39 642 18 13 21 -7 35 -182z m1603 -971 c-3 -3 -12 -4 -19 -1 -8 3 -5 6 6
6 11 1 17 -2 13 -5z m2026 -1 c-90 -2 -236 -2 -325 0 -90 1 -17 3 162 3 179 0
252 -2 163 -3z m607 -13 c18 -12 2 -12 -25 0 -13 6 -15 9 -5 9 8 0 22 -4 30
-9z m-4222 -7 c-81 -4 -87 -5 -90 -26 -3 -20 -4 -19 -9 6 l-6 27 96 -2 96 -2
-87 -3z m4504 0 c-51 -2 -132 -2 -180 0 -48 1 -6 3 93 3 99 0 138 -2 87 -3z
m-4925 -27 c-3 -8 -1 -17 6 -20 16 -7 -44 4 -63 12 -9 3 -2 8 20 12 19 4 37 8
39 9 2 0 1 -5 -2 -13z m4791 7 c-10 -2 -28 -2 -40 0 -13 2 -5 4 17 4 22 1 32
-1 23 -4z m80 0 c-10 -2 -26 -2 -35 0 -10 3 -2 5 17 5 19 0 27 -2 18 -5z
m-4630 -50 c-21 -2 -55 -2 -75 0 -21 2 -4 4 37 4 41 0 58 -2 38 -4z m750 0
c-10 -2 -28 -2 -40 0 -13 2 -5 4 17 4 22 1 32 -1 23 -4z m-220 -10 c-42 -2
-114 -2 -160 0 -46 1 -11 3 77 3 88 0 125 -2 83 -3z"/>
<path d="M412 2393 c59 -2 158 -2 220 0 62 1 14 3 -107 3 -121 0 -172 -2 -113
-3z"/>
<path d="M4016 1988 c-21 -30 -20 -50 5 -82 28 -35 70 -35 99 1 38 48 8 103
-56 103 -23 0 -38 -7 -48 -22z"/>
</g>
</svg>
