<svg width="52" height="38" viewBox="0 0 52 38" fill="none" xmlns="http://www.w3.org/2000/svg">
<g id="Quality policy">
<g id="Group">
<path id="Vector" d="M22.7187 0.0655425C21.8735 0.281991 21.0387 0.972565 20.5955 1.82805C20.379 2.24034 20.3481 2.46709 20.3172 3.91008L20.2759 5.5386H19.7297C19.204 5.5386 19.0803 5.47676 16.2459 3.73486C14.5864 2.71446 13.2053 1.93112 13.0713 1.93112C12.9373 1.93112 11.5355 2.72477 9.89671 3.73486L6.9695 5.5386H3.93922C0.90894 5.5386 0.90894 5.5386 0.671877 5.77566C0.445122 6.00242 0.434814 6.09518 0.362665 8.28028C0.321437 9.51713 0.249287 11.7641 0.187445 13.2689C0.135909 14.7737 0.0637596 17.4845 0.0328384 19.2986C-0.0290041 22.4319 -0.018697 22.6484 0.197752 23.6791C0.723413 26.2455 2.1561 28.6368 4.08352 30.1725C5.02146 30.9249 12.5456 35.3467 12.9991 35.4085C13.2156 35.4394 13.9783 35.0478 16.3489 33.6666C18.0393 32.6978 19.5957 31.7804 19.8018 31.6464C20.0183 31.5227 20.2141 31.4094 20.2347 31.4094C20.2553 31.4094 20.2966 32.2339 20.3172 33.2337C20.3481 34.9756 20.3687 35.089 20.6264 35.5837C20.9562 36.2022 21.5231 36.769 22.1518 37.0989L22.6156 37.3359H35.6541H48.6926L49.2801 37.0473C49.9913 36.6969 50.5272 36.1094 50.8055 35.357C51.0117 34.8107 51.0117 34.5736 51.0117 18.6801V2.55986L50.7952 1.97235C50.5272 1.27147 49.8779 0.570589 49.177 0.25107L48.6926 0.0243142L35.8602 0.00370008C28.7999 0.00370008 22.8939 0.0243142 22.7187 0.0655425ZM48.5895 1.53945C49.043 1.78682 49.4553 2.26095 49.5687 2.66293C49.713 3.14736 49.7027 34.2129 49.5687 34.7179C49.4141 35.2745 48.8266 35.8105 48.2081 35.9342C47.5691 36.0785 23.7288 36.0888 23.1413 35.9445C22.6466 35.8311 22.2755 35.5734 21.9766 35.1199L21.7395 34.7798V18.6801V2.58047L21.9766 2.24034C22.2652 1.80744 22.6569 1.51884 23.0898 1.41577C23.2856 1.36423 29.0267 1.34362 35.8602 1.34362C47.2186 1.36423 48.3112 1.37454 48.5895 1.53945ZM14.4421 4.27083C15.143 4.70373 16.4211 5.48707 17.2972 6.02303L18.8845 6.98159H19.5854H20.2966L20.2759 18.3812L20.245 29.7808L16.7921 31.7907C14.8956 32.9039 13.2671 33.8315 13.1641 33.8521C12.9888 33.9037 6.62937 30.2859 5.49559 29.4923C3.60939 28.1626 2.21794 26.0909 1.60982 23.6791C1.32122 22.535 1.32122 20.9992 1.58921 13.0318L1.78504 6.98159H4.52672H7.27871L8.60833 6.17764C9.34013 5.73444 10.6079 4.94079 11.4325 4.42544C12.257 3.91008 12.9785 3.48749 13.0507 3.48749C13.1125 3.47719 13.7413 3.82763 14.4421 4.27083Z" fill="#005393"/>
<path id="Vector_2" d="M25.4722 6.83671C25.1836 7.03255 25.163 7.59944 25.4309 7.8365C25.6062 8.00141 26.472 8.01172 35.7277 8.01172C43.7157 8.01172 45.8596 7.9808 45.942 7.87773C46.1791 7.59944 46.1894 7.23869 45.9626 6.95009L45.7462 6.6718H35.7174C26.8224 6.6718 25.6783 6.69241 25.4722 6.83671Z" fill="#DD2E10"/>
<path id="Vector_3" d="M34.6418 12.4448C24.5202 12.5066 25.2417 12.4448 25.2417 13.1353C25.2417 13.8259 24.6233 13.7847 35.7137 13.7847H45.7425L45.9486 13.5167C46.2166 13.1766 46.2166 12.9498 45.9899 12.6715C45.7425 12.3829 45.5982 12.3829 34.6418 12.4448Z" fill="#DD2E10"/>
<path id="Vector_4" d="M25.6053 18.2369C25.3167 18.4018 25.2445 18.5255 25.2445 18.9068C25.2445 19.5974 24.6261 19.5562 35.6856 19.5562H45.6629L45.9102 19.2985C46.2194 18.9996 46.2401 18.7316 45.9721 18.4121L45.7762 18.1647L35.7887 18.1441C28.4603 18.1235 25.7599 18.1441 25.6053 18.2369Z" fill="#DD2E10"/>
<path id="Vector_5" d="M25.6571 23.9568C25.3994 24.0496 25.2448 24.3176 25.2448 24.668C25.2448 25.3689 24.6161 25.3277 35.6859 25.3277H45.6631L45.9105 25.07C46.2403 24.7505 46.2403 24.4619 45.9105 24.1424L45.6631 23.8847L35.7374 23.895C30.2747 23.895 25.7396 23.9259 25.6571 23.9568Z" fill="#DD2E10"/>
<path id="Vector_6" d="M27.779 29.8847C27.5523 30.2042 27.5729 30.5443 27.8203 30.7917C28.0264 30.9978 28.1604 30.9978 35.633 30.9978C44.0745 30.9978 43.6932 31.0288 43.6932 30.3382C43.6932 29.6167 44.1776 29.6579 35.6227 29.6579H27.9336L27.779 29.8847Z" fill="#DD2E10"/>
<path id="Vector_7" d="M10.3742 7.28947L7.93141 8.73246H5.89061C3.9838 8.73246 3.8292 8.74277 3.65398 8.9386C3.49937 9.11382 3.45814 9.71163 3.27262 14.9889C3.16954 18.2047 3.09739 21.2865 3.12832 21.8224C3.252 24.0797 4.32394 26.3163 5.91123 27.615C6.68426 28.2541 12.7654 31.8203 13.0746 31.8203C13.3014 31.8203 18.4343 28.9034 18.5683 28.6973C18.826 28.2953 18.4756 27.5944 18.022 27.5944C17.9087 27.5944 16.7646 28.2025 15.4865 28.9343C14.2187 29.6764 13.1365 30.2743 13.085 30.2743C12.9613 30.2743 7.52944 27.11 7.12746 26.8008C5.74631 25.7494 4.73622 23.956 4.55069 22.1729C4.49916 21.7194 4.54039 19.2044 4.64346 15.968C4.74653 12.979 4.82898 10.4331 4.82898 10.2991C4.83929 10.0724 4.83929 10.0724 6.62242 10.0724H8.40554L10.6937 8.73246C11.9512 7.99035 13.0231 7.39254 13.0746 7.39254C13.1262 7.39254 14.2084 7.99035 15.4659 8.73246C16.847 9.53641 17.8674 10.0724 18.0324 10.0724C18.187 10.0724 18.3828 9.98992 18.4756 9.88685C18.7023 9.63948 18.7023 9.11382 18.4756 8.91799C18.0427 8.54693 13.3014 5.84648 13.0746 5.84648C12.9407 5.84648 11.7244 6.49582 10.3742 7.28947Z" fill="#DD2E10"/>
<path id="Vector_8" d="M14.7307 17.4433C13.3392 18.8347 12.1539 19.9685 12.1024 19.9685C12.0405 19.9685 11.3293 19.2985 10.5048 18.474C9.20606 17.1753 8.969 16.9794 8.6804 16.9794C8.45365 16.9794 8.29904 17.0516 8.19597 17.2062C7.83522 17.7113 7.92799 17.8555 9.91725 19.8345C11.5045 21.4218 11.8447 21.7207 12.1024 21.7207C12.36 21.7207 12.8238 21.2981 15.2666 18.8656C17.7609 16.3713 18.132 15.9694 18.132 15.6911C18.132 15.5261 18.0908 15.3303 18.0495 15.2685C17.9568 15.1242 17.5651 14.918 17.4002 14.918C17.328 14.918 16.1221 16.0518 14.7307 17.4433Z" fill="#005393"/>
</g>
</g>
</svg>
