<svg width="36" height="41" viewBox="0 0 36 41" fill="none" xmlns="http://www.w3.org/2000/svg">
<g id="Value">
<path id="Vector" d="M13.5919 0.799644C13.4289 1.21618 16.6525 4.49414 17.2321 4.49414C18.0833 4.49414 17.7211 3.76973 16.073 2.10358C14.4793 0.509879 13.8273 0.165784 13.5919 0.799644Z" fill="#005393"/>
<path id="Vector_2" d="M29.9796 2.21126C28.8024 3.38843 28.3134 4.00418 28.3859 4.20339C28.6213 4.78292 29.2008 4.45694 30.8489 2.79079C32.026 1.61362 32.515 0.997873 32.4426 0.79866C32.2072 0.219131 31.6276 0.545116 29.9796 2.21126Z" fill="#005393"/>
<path id="Vector_3" d="M22.3588 1.23373C22.2139 1.32429 21.4713 2.61011 20.7288 4.07705L19.3706 6.75737L16.491 7.15579C13.3942 7.60855 12.9414 7.78965 12.9414 8.65895C12.9414 9.02115 13.4304 9.60068 15.0965 11.2668L17.2517 13.4038L16.817 15.9574C16.328 18.8731 16.2918 19.5432 16.5997 19.8511C17.0524 20.3039 17.9217 20.0503 20.3847 18.7464L22.9021 17.4424L25.4194 18.7464C27.9548 20.0865 28.4257 20.2314 29.0777 19.8873C29.5304 19.6338 29.5304 19.1267 28.969 15.9574L28.4981 13.3676L30.6895 11.2306C32.9714 9.02115 33.1525 8.69517 32.5548 7.95265C32.2832 7.62666 31.7761 7.49989 29.3312 7.15579L26.4336 6.75737L25.0572 4.07705C24.3147 2.592 23.5721 1.30618 23.4273 1.21562C23.1013 1.01641 22.7028 1.01641 22.3588 1.23373ZM24.1517 4.76524C24.7855 6.1054 25.4556 7.3369 25.6186 7.48178C25.8359 7.68099 26.8139 7.89832 28.3714 8.13375C29.6934 8.31485 30.9792 8.51407 31.2147 8.58651C31.6312 8.67706 31.4863 8.84005 29.4942 10.8503L27.3391 13.0054L27.7737 15.4865C27.991 16.8629 28.2265 18.2212 28.2808 18.5109L28.3895 19.0361L25.6367 17.6054L22.8839 16.1747L20.1493 17.6054L17.4146 19.0361L17.5052 18.5109C17.5776 18.2212 17.795 16.8629 18.0304 15.4865L18.4288 12.9873L16.2918 10.8322C14.8611 9.40147 14.2272 8.64084 14.4083 8.58651C14.5532 8.55029 15.8209 8.35107 17.2517 8.15186C18.9721 7.89832 19.9682 7.68099 20.1674 7.49989C20.3485 7.3369 21.0005 6.1054 21.6343 4.76524C22.2682 3.42508 22.8296 2.32035 22.8839 2.32035C22.9383 2.32035 23.5178 3.42508 24.1517 4.76524Z" fill="#DD2E10"/>
<path id="Vector_4" d="M12.4868 15.378C11.1466 16.3198 10.6758 16.7544 10.6758 17.0442C10.6758 17.7686 11.2734 17.5694 13.2112 16.2473C14.7325 15.215 15.1128 14.8528 15.0766 14.5631C14.986 13.8749 14.3341 14.0741 12.4868 15.378Z" fill="#005393"/>
<path id="Vector_5" d="M31.1753 14.2195C30.8131 14.5636 31.2296 15.0345 32.932 16.2116C34.9422 17.6242 35.5761 17.8234 35.5761 17.1171C35.5761 16.773 35.1777 16.4108 33.6926 15.3967C31.8997 14.1471 31.4469 13.9478 31.1753 14.2195Z" fill="#005393"/>
<path id="Vector_6" d="M22.7564 19.7419C22.6115 19.8868 22.5391 20.7017 22.5391 22.1868C22.5391 24.1064 22.5753 24.4143 22.865 24.5592C23.5532 24.9214 23.6257 24.6679 23.6257 22.1505C23.6257 20.1222 23.5895 19.7238 23.3359 19.6332C22.9737 19.4883 23.0099 19.4883 22.7564 19.7419Z" fill="#005393"/>
<path id="Vector_7" d="M12.9377 24.65C12.5936 24.7768 10.9818 25.6461 9.35183 26.5697C7.7219 27.4934 6.38174 28.2359 6.34552 28.1997C6.32741 28.1634 6.16442 27.9099 6.00143 27.6201C5.82032 27.3485 5.603 27.1312 5.49434 27.1312C5.09591 27.1312 0.0974741 29.5398 0.00692267 29.7753C-0.0474082 29.9201 0.224246 30.6264 0.604562 31.3508C0.984878 32.0571 2.12583 34.3028 3.14 36.3131C4.15418 38.3052 5.09591 40.0076 5.24079 40.0619C5.49434 40.1524 10.2936 37.8162 10.7463 37.3635C11.018 37.1099 10.9999 37.0737 10.4384 35.9871C10.4203 35.9146 10.6377 35.7879 10.9274 35.6792C11.4164 35.5162 12.1408 35.6792 16.3243 36.9107C19.2763 37.7981 21.5038 38.3595 22.0109 38.3595C22.7715 38.3595 23.3149 38.0698 28.8747 34.6469C32.1889 32.6186 35.1046 30.7532 35.3401 30.5359C36.4086 29.5398 36.1369 27.7107 34.833 27.0225C34.2354 26.7146 32.9857 26.6965 32.4424 26.9682C32.2251 27.0768 30.6676 28.0367 29.0015 29.0871C26.5204 30.6445 25.9771 31.0792 26.0133 31.3871C26.1219 32.1296 26.792 31.876 29.9613 29.8477C33.2574 27.7469 33.7645 27.5658 34.4527 28.2178C35.0322 28.7611 34.9598 29.3768 34.2716 29.902C32.8228 30.9886 22.355 37.2729 22.0109 37.2729C21.7936 37.2729 19.3668 36.6028 16.6322 35.806C11.7062 34.3572 11.3621 34.3028 10.1306 34.6469C9.8227 34.7375 9.56915 34.3753 8.35576 32.0209C7.55891 30.5178 6.96127 29.2501 6.99749 29.2319C7.68568 28.7067 13.3904 25.6823 13.6983 25.6823C14.2959 25.6823 24.0212 28.9422 24.4015 29.2682C25.1078 29.8839 24.4196 31.2965 23.4054 31.2965C23.2062 31.2965 21.9747 30.9705 20.6526 30.5721C19.3306 30.1737 18.081 29.8477 17.8818 29.8477C17.429 29.8477 17.1755 30.3729 17.5015 30.6808C17.8455 31.0068 22.5723 32.3831 23.3511 32.3831C24.981 32.3831 26.303 30.7532 25.7779 29.3587C25.3794 28.2721 25.0172 28.1091 19.3668 26.2256C16.3605 25.2296 13.8251 24.4146 13.7345 24.4146C13.644 24.4327 13.2818 24.5414 12.9377 24.65ZM7.39592 32.6729C8.57309 34.9186 9.49671 36.7839 9.46049 36.8202C9.44238 36.8383 8.57309 37.291 7.55891 37.7981L5.71166 38.7036L4.64315 36.6753C3.06756 33.7233 1.45575 30.4997 1.43763 30.3367C1.43763 30.1918 4.73371 28.5981 5.0778 28.58C5.18646 28.58 6.23686 30.4272 7.39592 32.6729Z" fill="#005393"/>
<path id="Vector_8" d="M6.06149 35.7332C5.69929 36.1678 6.06149 36.6387 6.71346 36.6387C7.18433 36.6387 7.23866 36.5662 7.23866 36.0954C7.23866 35.6426 7.16622 35.5339 6.76779 35.4977C6.49614 35.4615 6.20637 35.5702 6.06149 35.7332Z" fill="#005393"/>
</g>
</svg>
