<svg width="43" height="43" viewBox="0 0 43 43" fill="none" xmlns="http://www.w3.org/2000/svg">
<g id="Vision Mission">
<path id="Vector" d="M38.4178 0.870986C37.8679 1.4393 36.9512 2.3926 36.3462 3.01591C35.2646 4.11587 35.2646 4.1342 35.008 5.74747L34.733 7.37908L26.2083 15.9221C21.5151 20.6336 17.6836 24.5934 17.6836 24.7401C17.6836 25.0701 18.0502 25.4551 18.3619 25.4551C18.4902 25.4551 18.7469 25.3084 18.9302 25.1251C19.0952 24.9418 22.9817 21.0186 27.5466 16.4171L35.8513 8.03905L37.3362 7.7824L38.8028 7.54407L40.8927 5.45415L43.001 3.36423L41.9194 3.1809C41.1677 3.05257 40.8561 2.92424 40.9294 2.75925C41.0577 2.35593 40.5811 1.95261 40.1044 2.08094C39.7194 2.1726 39.6828 2.11761 39.6645 1.4943C39.6461 1.10931 39.5911 0.577663 39.5178 0.321006C39.4078 -0.173976 39.4078 -0.173976 38.4178 0.870986Z" fill="#DA2F11"/>
<path id="Vector_2" d="M15.3908 6.37076C8.36937 7.50738 2.64958 12.4755 0.742985 19.112C-2.17191 29.1399 3.74954 39.3145 13.9608 41.8078C16.0508 42.3028 19.6623 42.3394 21.7889 41.8811C29.1586 40.2678 34.7684 34.2914 35.85 26.9217C36.1433 24.9051 35.9784 21.5502 35.4834 19.7169C34.8051 17.1504 32.6968 13.1722 32.0002 13.1722C31.6335 13.1722 31.2485 13.5205 31.2485 13.8688C31.2485 13.9971 31.5052 14.4921 31.8168 14.9321C33.9068 17.9937 35.0067 22.4485 34.5484 26.115C33.1551 37.3346 21.3306 43.9894 11.0826 39.3512C9.56099 38.6546 7.34274 37.0596 6.11445 35.7763C1.73295 31.2298 0.266336 24.8684 2.2646 18.9286C2.9979 16.7287 4.18952 14.8038 5.83946 13.0255C8.13105 10.6056 10.5143 9.12066 13.5575 8.20403C15.3541 7.67238 19.2773 7.52572 21.2022 7.9107C23.7688 8.44235 25.7487 9.35898 28.3703 11.2106C29.3786 11.9256 29.8552 11.9622 30.0202 11.3572C30.1486 10.8439 29.8919 10.5506 28.407 9.52398C26.6287 8.29569 24.4104 7.26906 22.4489 6.75575C20.7256 6.31576 16.9857 6.1141 15.3908 6.37076Z" fill="#005393"/>
<path id="Vector_3" d="M16.1238 11.5416C13.2456 11.9816 11.1557 13.0816 8.97406 15.2632C7.06747 17.1881 6.1875 18.728 5.56419 21.2213C5.03254 23.3662 5.12421 26.2078 5.82085 28.2244C7.12247 32.0559 9.90903 34.8974 13.6672 36.2907C15.6655 37.0424 18.6904 37.2257 20.8536 36.749C29.03 34.9341 33.2832 25.6578 29.36 18.2514C28.7367 17.0598 28.26 16.6931 27.8384 17.0414C27.4534 17.3531 27.5267 17.8481 28.1134 18.9114C29.3233 21.0563 29.745 24.3195 29.14 26.8677C28.5533 29.3427 26.9584 31.7992 24.9601 33.2842C20.1753 36.8224 14.1622 36.4191 9.96403 32.2392C5.45419 27.7477 5.43586 20.6713 9.94569 16.1981C12.2739 13.9066 14.6939 12.8983 17.9571 12.8983C20.6886 12.8983 22.4852 13.4482 24.7402 15.0065C25.7301 15.6848 26.2984 15.6298 26.2984 14.8415C26.2984 14.4015 26.1151 14.1999 25.1618 13.5766C22.4486 11.8166 19.112 11.065 16.1238 11.5416Z" fill="#DD2E10"/>
<path id="Vector_4" d="M15.8108 17.6273C13.0425 18.6539 11.3559 20.8538 11.1359 23.6954C10.9343 26.2803 12.0892 28.6636 14.1975 30.0385C15.5541 30.9001 16.7824 31.2118 18.4873 31.1018C21.1272 30.9368 23.5471 29.1952 24.4821 26.7936C25.1971 24.9054 24.9588 21.6055 24.0788 21.3305C23.8221 21.2388 23.5838 21.3122 23.4005 21.4955C23.1438 21.7521 23.1438 21.8988 23.3271 22.6138C23.8588 24.612 23.4371 26.4086 22.0805 27.8936C19.4223 30.8085 14.9491 30.2402 13.1525 26.757C12.6392 25.7853 12.5475 25.4003 12.5475 24.3737C12.5475 22.7788 12.9509 21.6422 13.8492 20.6155C14.9491 19.3872 16.3424 18.7639 18.0473 18.7639C19.2023 18.7639 19.6056 18.8556 20.4123 19.2772C21.5855 19.8822 22.0805 19.8089 22.0805 19.0389C22.0805 18.5806 21.9522 18.4523 21.0356 17.994C20.1373 17.554 19.7156 17.4806 18.2307 17.4256C17.1124 17.4073 16.2507 17.4806 15.8108 17.6273Z" fill="#005393"/>
</g>
</svg>
